<svg width="1000px" height="528px"
 viewBox="0.00 0.00 739.00 390.18" xmlns="http://www.w3.org/2000/svg" xmlns:xlink="http://www.w3.org/1999/xlink">
<g id="graph0" class="graph" transform="scale(1.0 1.0) rotate(0) translate(4 386.18)">
<title>ContextMapGraph</title>
<polygon fill="white" stroke="transparent" points="-4,4 -4,-386.18 735,-386.18 735,4 -4,4"/>
<!-- GestionCajaContext -->
<g id="node1" class="node">
<title>GestionCajaContext</title>
<polygon fill="none" stroke="black" stroke-width="2" points="303.9,-336.37 303.44,-339.23 302.59,-342.07 301.34,-344.87 299.7,-347.63 297.68,-350.32 295.27,-352.95 292.49,-355.49 289.35,-357.95 285.84,-360.3 281.99,-362.55 277.8,-364.69 273.28,-366.7 268.44,-368.58 263.3,-370.33 257.88,-371.94 252.18,-373.41 246.22,-374.73 240.02,-375.9 233.6,-376.93 226.98,-377.8 220.16,-378.52 213.18,-379.09 206.05,-379.51 198.78,-379.79 191.41,-379.92 183.96,-379.91 176.43,-379.76 168.86,-379.49 161.26,-379.08 153.66,-378.55 146.08,-377.9 138.53,-377.15 131.05,-376.28 123.65,-375.32 116.34,-374.26 109.16,-373.12 102.13,-371.89 95.25,-370.59 88.55,-369.22 82.06,-367.79 75.78,-366.29 69.73,-364.75 63.94,-363.15 58.41,-361.52 53.17,-359.84 48.22,-358.14 43.58,-356.4 39.27,-354.63 35.28,-352.84 31.65,-351.03 28.37,-349.2 25.45,-347.36 22.9,-345.5 20.73,-343.63 18.95,-341.75 17.55,-339.86 16.54,-337.96 15.93,-336.06 15.71,-334.15 15.89,-332.24 16.46,-330.33 17.42,-328.41 18.77,-326.5 20.5,-324.59 22.62,-322.68 25.1,-320.78 27.96,-318.88 31.17,-317 34.73,-315.13 38.63,-313.28 42.86,-311.44 47.4,-309.63 52.25,-307.85 57.38,-306.1 62.8,-304.39 68.47,-302.72 74.4,-301.1 80.55,-299.53 86.91,-298.02 93.48,-296.58 100.21,-295.2 107.12,-293.91 114.16,-292.7 121.32,-291.58 128.59,-290.56 135.94,-289.65 143.36,-288.84 150.82,-288.15 158.3,-287.59 165.79,-287.15 173.27,-286.84 180.71,-286.68 188.09,-286.65 195.39,-286.77 202.61,-287.04 209.7,-287.46 216.67,-288.04 223.48,-288.77 230.12,-289.65 236.57,-290.69 242.81,-291.88 248.84,-293.23 254.62,-294.72 260.15,-296.35 265.4,-298.13 270.37,-300.04 275.04,-302.08 279.4,-304.24 283.44,-306.52 287.14,-308.9 290.5,-311.38 293.5,-313.95 296.14,-316.59 298.4,-319.31 300.29,-322.07 301.79,-324.89 302.91,-327.74 303.64,-330.61 303.97,-333.49 303.9,-336.37"/>
<text text-anchor="middle" x="159.81" y="-329.78" font-family="sans-serif" font-size="16.00">GestionCajaContext</text>
</g>
<!-- GestionInventariosContext -->
<g id="node2" class="node">
<title>GestionInventariosContext</title>
<polygon fill="none" stroke="black" stroke-width="2" points="586.57,-226.85 576.31,-228.34 565.86,-229.72 555.26,-230.98 544.55,-232.11 533.77,-233.11 522.96,-233.98 512.17,-234.7 501.42,-235.29 490.76,-235.72 480.23,-236.01 469.85,-236.15 459.66,-236.13 449.7,-235.97 439.98,-235.65 430.55,-235.18 421.41,-234.56 412.59,-233.79 404.12,-232.88 396.01,-231.83 388.28,-230.64 380.93,-229.32 373.99,-227.88 367.46,-226.31 361.34,-224.62 355.64,-222.83 350.37,-220.94 345.53,-218.95 341.11,-216.88 337.12,-214.73 333.55,-212.5 330.4,-210.22 327.67,-207.89 325.34,-205.51 323.42,-203.09 321.89,-200.65 320.75,-198.19 320,-195.72 319.62,-193.24 319.61,-190.78 319.97,-188.33 320.68,-185.9 321.74,-183.5 323.14,-181.14 324.88,-178.82 326.96,-176.55 329.36,-174.34 332.09,-172.19 335.15,-170.1 338.52,-168.09 342.21,-166.15 346.22,-164.3 350.54,-162.52 355.17,-160.83 360.11,-159.23 365.36,-157.72 370.92,-156.31 376.77,-154.99 382.93,-153.76 389.39,-152.64 396.14,-151.61 403.17,-150.68 410.49,-149.85 418.08,-149.11 425.94,-148.48 434.06,-147.94 442.42,-147.5 451.01,-147.16 459.82,-146.92 468.83,-146.77 478.03,-146.71 487.39,-146.76 496.89,-146.89 506.51,-147.12 516.23,-147.43 526.01,-147.84 535.83,-148.34 545.66,-148.93 555.47,-149.61 565.23,-150.37 574.9,-151.22 584.45,-152.16 593.84,-153.18 603.03,-154.28 612,-155.47 620.71,-156.73 629.11,-158.08 637.17,-159.51 644.86,-161.01 652.15,-162.59 658.99,-164.24 665.36,-165.96 671.23,-167.75 676.56,-169.6 681.34,-171.52 685.53,-173.5 689.11,-175.53 692.07,-177.62 694.38,-179.75 696.03,-181.93 697.02,-184.15 697.33,-186.4 696.95,-188.68 695.89,-190.98 694.15,-193.3 691.73,-195.62 688.64,-197.96 684.89,-200.28 680.5,-202.6 675.48,-204.9 669.85,-207.18 663.64,-209.42 656.88,-211.62 649.58,-213.78 641.79,-215.87 633.53,-217.91 624.85,-219.87 615.77,-221.75 606.34,-223.55 596.59,-225.25 586.57,-226.85"/>
<text text-anchor="middle" x="493.81" y="-185" font-family="sans-serif" font-size="16.00">GestionInventariosContext</text>
</g>
<!-- GestionCajaContext&#45;&gt;GestionInventariosContext -->
<g id="edge1" class="edge">
<title>GestionCajaContext&#45;&gt;GestionInventariosContext</title>
<path fill="none" stroke="black" stroke-width="2" d="M251.08,-293.56C295.79,-274.45 349.69,-251.41 395.34,-231.9"/>
<text text-anchor="middle" x="413.31" y="-257.37" font-family="sans-serif" font-size="12.00"> &#160;&#160;&#160;&#160;&#160;&#160;&#160;&#160;&#160;&#160;&#160;&#160;&#160;&#160;&#160;&#160;&#160;&#160;&#160;&#160;&#160;&#160;&#160;&#160;&#160;&#160;&#160;&#160;&#160;&#160;&#160;&#160;&#160;&#160;&#160;&#160;&#160;&#160;&#160;</text>
<polygon fill="white" stroke="transparent" points="376.34,-221.9 376.34,-240.9 392.34,-240.9 392.34,-221.9 376.34,-221.9"/>
<polyline fill="none" stroke="black" points="392.34,-221.9 392.34,-240.9 "/>
<text text-anchor="start" x="379.34" y="-228.3" font-family="sans-serif" font-size="12.00">D</text>
<polygon fill="white" stroke="transparent" points="392.34,-221.9 392.34,-240.9 414.34,-240.9 414.34,-221.9 392.34,-221.9"/>
<polygon fill="none" stroke="black" points="392.34,-221.9 392.34,-240.9 414.34,-240.9 414.34,-221.9 392.34,-221.9"/>
<text text-anchor="start" x="395.34" y="-228.3" font-family="sans-serif" font-size="12.00">CF</text>
<polygon fill="white" stroke="transparent" points="233.08,-283.56 233.08,-302.56 249.08,-302.56 249.08,-283.56 233.08,-283.56"/>
<polyline fill="none" stroke="black" points="249.08,-283.56 249.08,-302.56 "/>
<text text-anchor="start" x="236.08" y="-289.96" font-family="sans-serif" font-size="12.00">U</text>
<polygon fill="white" stroke="transparent" points="249.08,-283.56 249.08,-302.56 270.08,-302.56 270.08,-283.56 249.08,-283.56"/>
<polygon fill="none" stroke="black" points="249.08,-283.56 249.08,-302.56 270.08,-302.56 270.08,-283.56 249.08,-283.56"/>
<text text-anchor="start" x="252.08" y="-289.96" font-family="sans-serif" font-size="12.00">PL</text>
</g>
<!-- GestionVentasContext -->
<g id="node3" class="node">
<title>GestionVentasContext</title>
<polygon fill="none" stroke="black" stroke-width="2" points="238.39,-86.48 228.98,-87.66 219.46,-88.71 209.86,-89.64 200.23,-90.45 190.59,-91.12 180.99,-91.66 171.45,-92.06 162.03,-92.32 152.74,-92.44 143.62,-92.42 134.7,-92.25 126.01,-91.94 117.58,-91.49 109.42,-90.89 101.57,-90.15 94.04,-89.28 86.85,-88.27 80.02,-87.13 73.55,-85.86 67.47,-84.46 61.78,-82.95 56.48,-81.32 51.59,-79.59 47.1,-77.75 43.02,-75.82 39.35,-73.8 36.08,-71.7 33.21,-69.53 30.74,-67.3 28.67,-65 26.97,-62.66 25.66,-60.28 24.71,-57.87 24.12,-55.44 23.88,-52.99 23.99,-50.53 24.42,-48.08 25.18,-45.63 26.25,-43.2 27.62,-40.8 29.28,-38.43 31.23,-36.09 33.46,-33.81 35.96,-31.58 38.72,-29.4 41.74,-27.29 45.01,-25.25 48.53,-23.29 52.29,-21.4 56.28,-19.6 60.51,-17.89 64.97,-16.27 69.66,-14.74 74.58,-13.31 79.72,-11.97 85.08,-10.74 90.65,-9.61 96.44,-8.58 102.45,-7.66 108.66,-6.84 115.07,-6.13 121.68,-5.53 128.48,-5.02 135.47,-4.63 142.63,-4.34 149.96,-4.15 157.44,-4.06 165.07,-4.07 172.83,-4.19 180.7,-4.4 188.67,-4.72 196.72,-5.12 204.84,-5.63 212.99,-6.22 221.16,-6.91 229.33,-7.69 237.47,-8.55 245.55,-9.5 253.54,-10.54 261.42,-11.66 269.17,-12.86 276.74,-14.13 284.11,-15.49 291.24,-16.92 298.12,-18.42 304.71,-19.99 310.97,-21.63 316.88,-23.33 322.41,-25.09 327.53,-26.92 332.22,-28.8 336.44,-30.73 340.19,-32.71 343.43,-34.74 346.14,-36.81 348.31,-38.92 349.93,-41.06 350.97,-43.23 351.43,-45.42 351.31,-47.63 350.59,-49.86 349.27,-52.09 347.36,-54.33 344.87,-56.56 341.78,-58.79 338.13,-60.99 333.91,-63.18 329.15,-65.33 323.86,-67.45 318.07,-69.53 311.79,-71.56 305.05,-73.53 297.88,-75.44 290.32,-77.28 282.38,-79.04 274.11,-80.72 265.54,-82.31 256.71,-83.81 247.64,-85.2 238.39,-86.48"/>
<text text-anchor="middle" x="175.81" y="-42.51" font-family="sans-serif" font-size="16.00">GestionVentasContext</text>
</g>
<!-- GestionInventariosContext&#45;&gt;GestionVentasContext -->
<g id="edge2" class="edge">
<title>GestionInventariosContext&#45;&gt;GestionVentasContext</title>
<path fill="none" stroke="black" stroke-width="2" d="M408.17,-149.97C361.54,-129.37 304.12,-104 258.03,-83.64"/>
<text text-anchor="middle" x="379.31" y="-114.03" font-family="sans-serif" font-size="12.00">Partnership</text>
</g>
<!-- GestionVentasContext&#45;&gt;GestionCajaContext -->
<g id="edge3" class="edge">
<title>GestionVentasContext&#45;&gt;GestionCajaContext</title>
<path fill="none" stroke="black" stroke-width="2" d="M172.22,-92.39C171.04,-107.98 169.79,-125.57 168.81,-141.63 165.8,-191.32 163.22,-248.33 161.61,-287.03"/>
<text text-anchor="middle" x="224.81" y="-185.7" font-family="sans-serif" font-size="12.00">Customer/Supplier</text>
<polygon fill="white" stroke="transparent" points="154.61,-278.03 154.61,-295.03 168.61,-295.03 168.61,-278.03 154.61,-278.03"/>
<text text-anchor="start" x="156.61" y="-283.43" font-family="sans-serif" font-size="12.00">D</text>
<polygon fill="white" stroke="transparent" points="165.22,-83.39 165.22,-100.39 179.22,-100.39 179.22,-83.39 165.22,-83.39"/>
<text text-anchor="start" x="167.22" y="-88.79" font-family="sans-serif" font-size="12.00">U</text>
</g>
<!-- GestionProveedoresContext -->
<g id="node4" class="node">
<title>GestionProveedoresContext</title>
<polygon fill="none" stroke="black" stroke-width="2" points="686.78,-310.01 693.56,-312.42 699.85,-314.88 705.63,-317.37 710.88,-319.9 715.56,-322.45 719.67,-325.01 723.17,-327.58 726.06,-330.13 728.32,-332.67 729.93,-335.19 730.89,-337.67 731.2,-340.11 730.84,-342.51 729.82,-344.85 728.15,-347.13 725.82,-349.34 722.85,-351.48 719.25,-353.54 715.03,-355.52 710.21,-357.42 704.81,-359.22 698.85,-360.94 692.35,-362.56 685.34,-364.09 677.86,-365.51 669.92,-366.84 661.57,-368.07 652.82,-369.2 643.73,-370.24 634.33,-371.17 624.64,-372 614.71,-372.74 604.58,-373.38 594.28,-373.93 583.85,-374.38 573.33,-374.74 562.76,-375 552.16,-375.18 541.58,-375.27 531.05,-375.27 520.6,-375.18 510.26,-375.01 500.08,-374.76 490.06,-374.42 480.25,-374 470.67,-373.5 461.34,-372.92 452.28,-372.26 443.52,-371.53 435.07,-370.71 426.95,-369.81 419.18,-368.84 411.76,-367.79 404.72,-366.66 398.06,-365.45 391.78,-364.17 385.91,-362.81 380.43,-361.38 375.36,-359.87 370.7,-358.29 366.46,-356.63 362.62,-354.91 359.2,-353.11 356.19,-351.25 353.6,-349.32 351.42,-347.34 349.64,-345.29 348.27,-343.18 347.31,-341.03 346.75,-338.83 346.59,-336.58 346.82,-334.3 347.44,-331.98 348.46,-329.64 349.87,-327.28 351.65,-324.91 353.82,-322.53 356.38,-320.16 359.3,-317.79 362.6,-315.45 366.28,-313.12 370.32,-310.84 374.72,-308.59 379.49,-306.4 384.61,-304.27 390.09,-302.21 395.92,-300.23 402.09,-298.33 408.6,-296.53 415.43,-294.83 422.59,-293.25 430.06,-291.78 437.83,-290.43 445.89,-289.22 454.23,-288.15 462.83,-287.22 471.67,-286.44 480.75,-285.81 490.04,-285.34 499.52,-285.02 509.17,-284.87 518.96,-284.88 528.88,-285.05 538.89,-285.39 548.97,-285.89 559.1,-286.55 569.23,-287.37 579.33,-288.34 589.39,-289.46 599.36,-290.73 609.21,-292.14 618.9,-293.69 628.41,-295.36 637.69,-297.16 646.71,-299.07 655.45,-301.08 663.85,-303.19 671.9,-305.39 679.55,-307.67 686.78,-310.01"/>
<text text-anchor="middle" x="526.81" y="-329.78" font-family="sans-serif" font-size="16.00">GestionProveedoresContext</text>
</g>
<!-- GestionProveedoresContext&#45;&gt;GestionInventariosContext -->
<g id="edge4" class="edge">
<title>GestionProveedoresContext&#45;&gt;GestionInventariosContext</title>
<path fill="none" stroke="black" stroke-width="2" d="M515.73,-284.64C512.06,-268.76 507.99,-251.14 504.36,-235.44"/>
<text text-anchor="middle" x="546.31" y="-257.37" font-family="sans-serif" font-size="12.00">Partnership</text>
</g>
</g>
</svg>
